<?xml version="1.0" standalone="no"?>
<!DOCTYPE svg PUBLIC "-//W3C//DTD SVG 20010904//EN"
 "http://www.w3.org/TR/2001/REC-SVG-20010904/DTD/svg10.dtd">
<svg version="1.0" xmlns="http://www.w3.org/2000/svg"
 width="406.000000pt" height="158.000000pt" viewBox="0 0 406.000000 158.000000"
 preserveAspectRatio="xMidYMid meet">

<g transform="translate(0.000000,158.000000) scale(0.100000,-0.100000)"
fill="#000000" stroke="none">
<path d="M0 790 l0 -790 2030 0 2030 0 0 790 0 790 -2030 0 -2030 0 0 -790z
m581 147 c9 -38 19 -70 21 -73 3 -2 12 30 22 71 l18 75 59 0 59 0 0 -125 0
-125 -40 0 -40 0 -1 88 0 87 -22 -85 -22 -85 -37 -3 -37 -3 -16 58 c-31 112
-33 113 -34 26 l-1 -83 -35 0 -35 0 0 125 0 126 62 -3 62 -3 17 -68z m299 -22
l0 -95 45 0 c43 0 45 -1 45 -30 l0 -30 -85 0 -85 0 0 125 0 125 40 0 40 0 0
-95z m264 89 c9 -4 16 -18 16 -34 0 -27 -1 -27 -45 -22 -62 7 -61 -18 3 -49
41 -21 47 -28 50 -60 2 -25 -3 -40 -17 -53 -22 -20 -95 -32 -135 -22 -22 5
-26 12 -26 40 l0 34 34 -10 c19 -6 43 -8 53 -4 17 7 16 9 -6 27 -13 10 -29 19
-36 19 -20 0 -47 38 -47 67 0 40 43 73 97 73 24 0 50 -3 59 -6z m246 -27 c0
-32 -1 -33 -34 -29 -43 5 -72 -10 -80 -42 -15 -59 36 -102 90 -77 23 10 24 9
24 -23 0 -38 -12 -46 -71 -46 -76 0 -129 49 -129 120 0 77 61 130 148 130 l52
0 0 -33z m225 -53 c19 -92 25 -93 45 -4 20 94 18 90 62 90 28 0 39 -4 36 -12
-3 -7 -22 -64 -42 -125 l-38 -113 -43 0 -44 0 -37 118 c-20 64 -38 120 -41
125 -2 4 16 7 40 7 l44 0 18 -86z m245 -39 l0 -125 -35 0 -35 0 0 125 0 125
35 0 35 0 0 -125z m260 95 c0 -28 -2 -30 -40 -30 l-40 0 0 -95 0 -95 -35 0
-35 0 0 95 0 95 -35 0 c-32 0 -35 2 -35 30 l0 30 110 0 110 0 0 -30z m415 18
c30 -14 46 -61 32 -101 -11 -32 -53 -57 -97 -57 -28 0 -30 -2 -30 -40 0 -39
-1 -40 -35 -40 l-35 0 0 125 0 125 70 0 c38 0 81 -5 95 -12z m135 -118 c0 -46
4 -62 16 -67 23 -9 34 15 34 75 l0 52 35 0 35 0 0 -90 0 -90 -35 0 c-19 0 -35
5 -35 10 0 7 -6 7 -19 0 -29 -15 -62 -12 -83 7 -14 13 -18 31 -18 90 l0 73 35
0 35 0 0 -60z m240 50 c0 -7 6 -7 19 0 28 14 57 12 75 -6 12 -11 16 -36 16
-90 l0 -74 -35 0 -34 0 -3 62 c-2 50 -6 63 -20 66 -16 3 -18 -5 -18 -62 l0
-66 -40 0 -40 0 0 90 0 90 40 0 c22 0 40 -5 40 -10z m294 -11 c19 -15 26 -30
26 -55 l0 -34 -57 0 c-47 -1 -54 -3 -39 -11 10 -6 33 -9 52 -6 31 5 34 3 34
-18 0 -26 -17 -35 -66 -35 -41 0 -89 22 -98 45 -35 92 72 174 148 114z m-994
-116 c0 -5 -5 -25 -11 -45 -9 -33 -14 -38 -41 -38 -29 0 -30 2 -24 31 3 17 6
38 6 45 0 9 12 14 35 14 19 0 35 -3 35 -7z"/>
<path d="M2440 925 c0 -32 3 -36 23 -33 17 2 22 10 22 33 0 23 -5 31 -22 33
-20 3 -23 -1 -23 -33z"/>
<path d="M3126 885 c-4 -11 1 -15 19 -15 18 0 23 4 19 15 -4 8 -12 15 -19 15
-7 0 -15 -7 -19 -15z"/>
</g>
</svg>
