<?xml version="1.0" standalone="no"?>
<!DOCTYPE svg PUBLIC "-//W3C//DTD SVG 20010904//EN"
 "http://www.w3.org/TR/2001/REC-SVG-20010904/DTD/svg10.dtd">
<svg version="1.0" xmlns="http://www.w3.org/2000/svg"
 width="225.000000pt" height="225.000000pt" viewBox="0 0 225.000000 225.000000"
 preserveAspectRatio="xMidYMid meet">

<g transform="translate(0.000000,225.000000) scale(0.100000,-0.100000)"
fill="#000000" stroke="none">
<path d="M0 1125 l0 -1125 1125 0 1125 0 0 1125 0 1125 -1125 0 -1125 0 0
-1125z m1450 706 c0 -5 -5 -11 -11 -13 -7 -2 -10 -10 -8 -17 4 -11 9 -10 22 3
15 16 19 16 32 2 17 -17 20 -36 5 -36 -5 0 -10 -11 -10 -25 0 -14 5 -25 10
-25 6 0 10 -4 10 -10 0 -5 -9 -10 -20 -10 -16 0 -20 7 -20 35 0 24 -5 35 -15
35 -10 0 -15 -11 -15 -35 0 -23 -5 -35 -14 -35 -20 0 -28 89 -10 118 14 22 44
31 44 13z m-635 -48 l18 -47 17 45 c12 30 24 45 39 47 20 3 21 -1 21 -62 0
-52 -3 -66 -15 -66 -11 0 -15 12 -16 43 l0 42 -19 -42 c-11 -24 -23 -43 -29
-43 -5 0 -17 19 -27 43 l-19 42 -3 -42 c-5 -67 -22 -50 -22 22 0 57 2 65 19
65 13 0 24 -14 36 -47z m135 37 c0 -5 -7 -10 -15 -10 -8 0 -15 5 -15 10 0 6 7
10 15 10 8 0 15 -4 15 -10z m88 -37 c2 -8 -6 -13 -22 -13 -21 0 -26 -5 -26
-25 0 -20 5 -25 25 -25 14 0 25 -4 25 -10 0 -14 -54 -12 -68 2 -19 19 -14 56
11 73 25 17 48 16 55 -2z m72 2 c0 -8 -7 -15 -15 -15 -10 0 -15 -11 -15 -35 0
-24 -5 -35 -15 -35 -11 0 -15 12 -15 44 0 46 -1 45 53 55 4 0 7 -6 7 -14z m80
-5 c23 -23 24 -33 10 -61 -13 -24 -75 -27 -84 -3 -10 27 -7 52 10 68 21 21 40
20 64 -4z m81 5 c-1 -5 -5 -11 -11 -11 -5 -1 -13 -2 -16 -3 -3 0 4 -9 17 -19
14 -12 20 -25 16 -35 -7 -18 -52 -23 -62 -7 -3 6 4 10 16 10 l23 0 -22 20
c-26 25 -26 24 -6 45 17 17 45 17 45 0z m99 -5 c38 -38 15 -84 -40 -78 -32 3
-35 6 -38 38 -6 55 40 78 78 40z m-420 -35 c0 -33 -4 -45 -15 -45 -11 0 -15
12 -15 45 0 33 4 45 15 45 11 0 15 -12 15 -45z m15 -225 c14 0 25 -4 25 -10 0
-5 -16 -10 -35 -10 l-35 0 0 63 c0 83 14 97 18 18 3 -57 4 -61 27 -61z m115
59 c16 -29 12 -31 -53 -38 -20 -2 7 -21 29 -21 14 0 22 -4 19 -10 -13 -20 -55
-11 -67 15 -25 56 44 108 72 54z m88 9 c13 -13 16 -57 4 -74 -4 -5 -20 -10
-37 -10 -25 1 -30 5 -30 26 0 18 6 26 23 28 27 4 29 22 2 22 -11 0 -20 5 -20
10 0 14 43 13 58 -2z m82 2 c0 -4 -7 -10 -15 -14 -9 -3 -15 -19 -15 -41 0 -19
-4 -35 -10 -35 -5 0 -10 22 -10 49 0 45 2 49 25 49 14 0 25 -4 25 -8z m86 -1
c16 -13 19 -89 4 -89 -5 0 -10 18 -10 40 0 33 -3 40 -19 40 -19 0 -37 -32 -27
-48 2 -4 1 -14 -5 -22 -6 -10 -9 1 -9 35 0 48 2 51 26 53 15 1 33 -3 40 -9z
m-136 -329 c11 -11 20 -25 20 -32 0 -19 -31 -48 -52 -48 -14 0 -18 -8 -18 -35
0 -24 -5 -35 -15 -35 -12 0 -15 16 -15 85 l0 85 30 0 c17 0 39 -9 50 -20z
m132 -62 c3 -70 4 -73 28 -73 23 0 26 5 34 68 6 46 13 67 23 67 11 0 13 -13 7
-62 -9 -87 -17 -98 -64 -98 -50 0 -60 18 -60 104 0 51 3 66 15 66 11 0 15 -17
17 -72z m-462 47 c0 -8 -9 -15 -21 -15 -19 0 -20 -4 -13 -70 6 -61 4 -70 -10
-70 -13 0 -16 12 -16 66 0 57 -3 67 -20 71 -11 3 -20 12 -20 19 0 10 14 14 50
14 38 0 50 -4 50 -15z m708 -45 c53 -63 62 -62 62 6 0 25 4 34 16 34 14 0 16
-8 10 -46 -3 -26 -6 -64 -6 -85 0 -22 -3 -39 -7 -38 -5 0 -28 27 -53 59 -49
63 -58 61 -59 -12 -1 -28 -5 -38 -17 -38 -15 0 -16 9 -10 61 3 34 6 75 6 90 0
16 2 29 4 29 2 0 27 -27 54 -60z m-914 13 c14 -71 18 -143 8 -143 -11 0 -18
26 -28 113 -4 37 -3 57 4 57 6 0 13 -12 16 -27z m-160 -79 c-13 -48 -25 -89
-27 -91 -3 -2 -25 32 -50 76 -25 44 -42 82 -39 85 13 13 23 3 47 -44 14 -27
27 -50 29 -50 3 0 12 25 21 55 9 32 21 55 29 55 11 0 9 -18 -10 -86z m1335 80
c45 -9 41 -34 -4 -27 -31 5 -35 3 -35 -16 0 -17 6 -21 30 -21 21 0 30 -5 30
-16 0 -12 -7 -15 -30 -12 -22 3 -31 0 -36 -14 -8 -25 3 -38 32 -38 15 0 24 -6
24 -16 0 -12 -6 -15 -22 -10 -13 3 -34 6 -47 6 -22 0 -23 2 -17 48 18 135 14
128 75 116z m-681 -387 c4 -20 -25 -34 -40 -19 -15 15 -1 44 19 40 10 -2 19
-11 21 -21z m-68 -42 c19 -19 37 -35 42 -35 4 0 22 16 39 35 21 23 41 35 58
35 24 0 21 -4 -35 -60 l-60 -61 -61 61 c-51 50 -58 60 -39 60 12 0 37 -16 56
-35z m107 -170 c29 -30 53 -57 53 -60 0 -18 -41 1 -77 37 l-43 42 -43 -42
c-39 -38 -67 -53 -67 -35 0 11 103 113 114 113 5 0 34 -25 63 -55z"/>
<path d="M1133 1754 c-3 -8 -1 -20 5 -26 16 -16 42 -2 42 22 0 24 -38 28 -47
4z"/>
<path d="M1320 1765 c-16 -19 -5 -47 17 -43 22 4 29 43 9 51 -8 3 -20 -1 -26
-8z"/>
<path d="M1025 1570 c-4 -6 5 -10 20 -10 15 0 24 4 20 10 -3 6 -12 10 -20 10
-8 0 -17 -4 -20 -10z"/>
<path d="M1125 1539 c-4 -6 -4 -13 -1 -16 8 -8 36 5 36 17 0 13 -27 13 -35 -1z"/>
<path d="M1150 1225 c0 -27 6 -30 29 -16 17 11 7 41 -14 41 -9 0 -15 -9 -15
-25z"/>
</g>
</svg>
