<?xml version="1.0" standalone="no"?>
<!DOCTYPE svg PUBLIC "-//W3C//DTD SVG 20010904//EN"
 "http://www.w3.org/TR/2001/REC-SVG-20010904/DTD/svg10.dtd">
<svg version="1.0" xmlns="http://www.w3.org/2000/svg"
 width="493.000000pt" height="652.000000pt" viewBox="0 0 493.000000 652.000000"
 preserveAspectRatio="xMidYMid meet">

<g transform="translate(0.000000,652.000000) scale(0.100000,-0.100000)"
fill="#000000" stroke="none">
<path d="M2 3258 c2 -1795 4 -3139 5 -2988 l3 274 100 102 c84 85 106 114 136
180 86 191 70 179 389 295 137 50 193 66 272 74 58 6 65 10 97 50 40 48 95 79
173 95 28 6 58 19 65 28 8 9 22 49 31 87 16 67 20 73 97 148 66 64 98 86 185
128 57 27 108 55 112 62 12 19 101 261 137 372 18 55 38 111 45 125 15 29 81
100 93 100 16 0 7 -38 -17 -74 -46 -68 -53 -53 172 -409 117 -185 147 -227
179 -248 14 -9 25 -20 24 -24 -1 -3 1 -9 4 -12 3 -4 6 -1 6 5 0 7 8 12 18 12
11 0 27 9 37 20 10 11 26 20 34 19 45 -4 71 2 71 16 0 12 7 14 28 9 15 -4 33
-11 40 -17 9 -7 12 -4 12 12 0 17 6 21 35 21 19 0 35 5 35 10 0 15 53 12 93
-5 46 -19 44 -20 39 15 -4 26 -1 30 19 31 81 3 199 30 199 45 0 8 3 14 8 15
28 3 42 10 70 38 18 19 29 38 25 46 -3 9 0 21 5 28 6 7 7 18 2 26 -4 8 -6 19
-4 26 10 25 -19 34 -71 22 -28 -6 -52 -14 -55 -18 -8 -12 -27 3 -31 24 -4 18
-5 18 -26 -1 -13 -10 -20 -21 -17 -24 3 -3 -2 -8 -11 -12 -9 -3 -13 -2 -10 4
3 6 -3 10 -14 10 -21 0 -57 53 -46 70 3 5 1 11 -5 15 -6 4 -10 -8 -10 -29 0
-47 -14 -47 -18 0 -1 27 3 40 20 54 21 17 21 19 5 25 -9 4 -23 2 -31 -4 -7 -6
-26 -9 -42 -6 -16 2 -51 7 -78 9 -27 3 -54 10 -60 16 -5 5 -20 10 -32 10 -15
0 -24 8 -28 25 -4 14 -16 27 -29 30 -19 5 -22 11 -19 46 4 37 25 55 34 28 2
-7 11 -5 22 7 16 16 37 19 143 20 75 1 136 7 156 15 41 17 90 65 81 80 -4 7
-9 8 -13 1 -3 -6 -19 -8 -34 -5 l-28 5 33 24 c17 13 41 24 52 24 10 0 37 18
58 40 22 22 44 40 49 40 5 0 9 4 9 9 0 17 56 20 97 4 49 -18 107 -11 119 15
10 24 14 62 6 62 -4 0 -13 14 -20 30 -9 19 -23 32 -40 36 -15 3 -37 9 -49 14
-14 6 -25 5 -28 -1 -4 -5 -15 -7 -25 -4 -18 6 -35 -19 -24 -36 6 -10 -39 -12
-85 -3 -19 4 -31 13 -31 22 0 13 -3 13 -12 4 -18 -18 -27 -15 -21 7 4 16 -3
22 -37 31 -22 6 -44 18 -47 26 -3 7 -11 14 -19 14 -7 0 -20 13 -29 30 -9 18
-21 27 -29 24 -18 -7 -27 8 -17 25 6 9 11 10 15 2 5 -7 15 -5 33 6 15 10 49
25 76 35 101 36 125 73 65 104 -41 21 -95 14 -144 -20 -21 -14 -49 -26 -62
-26 -35 0 -90 26 -123 59 l-29 30 -60 -21 c-33 -11 -60 -24 -60 -28 0 -4 -9
-6 -20 -3 -23 6 -23 8 -10 -36 6 -21 6 -40 0 -51 -7 -13 -4 -22 10 -35 54 -49
0 -78 -148 -78 -75 0 -107 3 -110 12 -2 7 -15 16 -28 21 -14 6 -24 18 -24 30
0 11 -5 20 -11 20 -6 0 -8 9 -4 20 4 14 2 20 -8 20 -23 0 -47 34 -40 58 7 29
-21 40 -46 18 -17 -16 -21 -16 -64 5 -25 12 -51 34 -59 48 -7 14 -21 32 -31
39 -9 7 -15 18 -12 23 4 5 3 15 -2 22 -4 6 -8 17 -8 22 -2 16 -18 49 -27 56
-10 7 -14 121 -4 137 4 7 14 12 21 12 8 0 18 12 21 26 5 18 12 24 25 21 10 -3
20 1 23 9 3 8 18 14 34 14 15 0 32 4 38 9 5 5 31 6 59 1 47 -7 163 -6 268 4
26 2 47 0 47 -5 0 -5 14 -6 32 -2 26 5 30 4 25 -10 -5 -14 0 -17 28 -17 19 0
37 -6 42 -15 7 -12 13 -12 32 -2 13 7 29 21 35 32 6 10 22 37 35 60 14 22 33
78 42 125 26 126 28 133 39 144 28 28 -10 106 -52 106 -9 0 -21 6 -27 14 -13
15 -63 25 -166 32 -38 3 -115 11 -170 19 -55 7 -125 17 -156 20 -31 3 -65 12
-74 19 -16 11 -16 16 -4 42 8 17 24 30 37 32 12 2 28 12 35 23 8 10 17 16 20
12 4 -3 7 -1 7 5 0 7 -5 12 -12 12 -6 0 -3 9 7 20 10 11 28 20 40 20 24 0 69
45 60 60 -4 6 5 10 19 10 28 0 42 16 37 43 -2 14 2 17 16 13 12 -4 24 1 33 14
8 11 22 20 32 20 10 0 18 6 18 13 0 8 4 7 10 -3 8 -13 12 -12 25 7 10 14 22
19 35 16 11 -3 20 -1 20 5 0 9 39 22 80 27 3 0 10 3 15 7 6 3 43 9 82 13 40 4
89 16 110 26 20 10 41 19 46 19 4 0 27 9 49 20 23 11 47 20 54 20 6 0 17 7 24
15 8 10 25 13 52 11 30 -3 40 0 44 12 11 34 22 47 39 47 10 0 21 7 23 15 7 22
23 30 59 30 17 0 34 6 36 13 3 7 6 5 6 -5 1 -10 4 -17 9 -16 10 3 72 -35 72
-44 0 -4 8 -8 18 -8 9 0 35 -18 57 -40 22 -21 44 -39 49 -40 4 0 39 -22 77
-50 73 -53 96 -64 56 -27 -30 26 -45 87 -22 87 8 0 15 -4 15 -9 0 -5 8 -7 18
-5 22 6 40 -23 47 -76 3 -22 14 -58 25 -80 11 -22 20 -47 20 -57 0 -10 7 -30
15 -46 16 -31 26 -107 14 -107 -5 0 -3 -11 3 -25 9 -19 14 -22 25 -14 9 8 13
8 13 1 0 -6 -5 -14 -10 -17 -6 -4 -8 -11 -4 -16 4 -6 11 -5 20 2 12 10 16 8
21 -9 3 -12 9 -22 14 -22 5 0 9 -9 9 -19 0 -27 16 -35 25 -13 4 9 9 42 12 72
2 30 9 60 14 65 7 7 8 -41 5 -144 l-6 -153 23 7 c59 19 93 17 123 -8 29 -25
29 -25 29 -144 0 -131 -8 -164 -77 -315 -26 -57 -41 -108 -44 -145 -8 -95 -12
-103 -51 -119 -20 -9 -46 -13 -59 -10 -12 3 -25 2 -28 -2 -3 -5 -16 -61 -30
-124 -34 -157 -80 -268 -196 -477 -16 -29 -28 -57 -25 -61 3 -5 47 -37 98 -71
50 -34 126 -87 167 -118 102 -75 475 -383 585 -483 50 -44 109 -89 132 -100
23 -10 109 -36 192 -58 169 -44 206 -60 274 -120 l47 -42 0 2566 0 2566 -2465
0 -2465 0 2 -3262z m3385 2092 c3 -11 11 -20 18 -20 7 0 18 -13 25 -30 7 -16
23 -36 36 -45 13 -8 28 -25 34 -37 11 -23 11 -23 -7 -3 -10 12 -35 32 -55 46
-21 14 -35 29 -31 33 4 4 3 10 -2 14 -6 4 -21 20 -34 35 -21 23 -22 27 -7 27
10 0 20 -9 23 -20z m69 -197 c-7 -7 -26 7 -26 19 0 6 6 6 15 -2 9 -7 13 -15
11 -17z m124 -34 c0 -5 -4 -9 -10 -9 -5 0 -10 7 -10 16 0 8 5 12 10 9 6 -3 10
-10 10 -16z m-80 -19 c0 -5 -2 -10 -4 -10 -3 0 -8 5 -11 10 -3 6 -1 10 4 10 6
0 11 -4 11 -10z m71 -20 l24 -21 -32 16 c-32 15 -42 25 -24 25 5 0 19 -9 32
-20z m-27 -45 c-4 -8 -11 -12 -16 -9 -6 4 -5 10 3 15 19 12 19 11 13 -6z m240
-357 c10 -45 12 -98 4 -98 -4 0 -12 18 -18 40 -6 21 -15 42 -21 45 -7 5 -6 12
2 21 17 20 28 17 33 -8z m21 -185 c6 -47 5 -53 -12 -54 -16 -1 -16 -2 0 -6 17
-5 25 -57 9 -67 -11 -7 -58 31 -49 41 5 4 17 -3 27 -17 11 -14 20 -19 20 -12
0 7 -9 20 -19 29 -11 9 -18 21 -15 25 3 5 -2 18 -11 28 -13 15 -14 23 -5 39 6
12 16 21 23 21 8 0 6 4 -3 10 -13 9 -13 11 0 20 21 13 27 3 35 -57z m-1085
-1709 c-11 -29 14 -64 45 -64 39 0 38 -18 -1 -35 -48 -20 -107 -19 -147 2 -30
15 -31 17 -11 25 26 12 46 44 48 81 1 16 10 36 20 43 16 11 21 10 36 -9 13
-15 15 -28 10 -43z m190 -220 c0 -28 -73 -38 -130 -18 -22 8 -19 9 25 15 73 9
105 10 105 3z m-170 -544 c0 -5 -7 -10 -15 -10 -8 0 -15 5 -15 10 0 6 7 10 15
10 8 0 15 -4 15 -10z m40 -20 c0 -5 -2 -10 -4 -10 -3 0 -8 5 -11 10 -3 6 -1
10 4 10 6 0 11 -4 11 -10z m37 -16 c-3 -3 -12 -4 -19 -1 -8 3 -5 6 6 6 11 1
17 -2 13 -5z"/>
<path d="M3245 3973 c-120 -24 -199 -34 -224 -28 -13 4 -33 -1 -47 -10 -22
-14 -24 -14 -24 1 0 12 -4 14 -12 7 -7 -6 -26 -13 -43 -17 -16 -4 -35 -16 -42
-26 -7 -10 -28 -20 -46 -22 -39 -4 -53 -38 -15 -39 13 0 17 -3 10 -6 -6 -2 -9
-9 -6 -15 3 -5 -2 -15 -12 -22 -16 -13 -15 -15 14 -30 35 -18 52 -62 44 -114
-9 -62 40 -131 68 -97 17 21 35 19 85 -10 62 -37 186 -59 248 -44 42 10 65 29
36 29 -7 0 0 9 14 20 14 11 30 20 36 20 6 0 11 5 11 10 0 6 18 10 40 10 22 0
40 4 40 9 0 11 46 29 84 33 16 2 31 8 33 15 7 19 -33 51 -79 63 -24 7 -47 15
-53 20 -5 4 -55 10 -109 14 -54 4 -103 9 -107 12 -29 17 8 85 49 89 9 1 24 5
32 8 94 34 124 41 183 41 49 1 66 4 62 14 -2 6 1 12 8 12 7 1 -15 14 -48 29
-75 35 -140 42 -230 24z m80 -352 c6 -11 -33 -36 -42 -27 -3 3 -3 12 0 21 7
17 33 20 42 6z"/>
<path d="M3677 3929 c-3 -10 -1 -19 4 -19 6 0 9 -8 7 -17 -2 -11 3 -18 12 -18
8 0 18 -4 21 -9 4 -5 12 -6 18 -2 6 4 3 14 -9 26 -11 11 -20 26 -20 34 0 22
-27 27 -33 5z"/>
<path d="M3695 3840 c-8 -13 3 -68 15 -75 5 -3 8 15 8 40 0 43 -9 57 -23 35z"/>
<path d="M3851 3700 l-34 -29 19 -73 c10 -40 19 -103 19 -140 0 -38 2 -68 5
-68 9 0 49 94 59 142 22 95 8 199 -25 198 -5 -1 -24 -14 -43 -30z"/>
<path d="M3757 3496 c-3 -8 -9 -42 -13 -75 -5 -46 -3 -61 6 -61 9 0 9 -4 -1
-17 -13 -16 -12 -17 4 -4 10 8 27 32 37 54 17 35 18 43 6 72 -16 38 -32 50
-39 31z"/>
<path d="M2428 3177 c-3 -19 -2 -25 4 -19 6 6 8 18 6 28 -3 14 -5 12 -10 -9z"/>
<path d="M3427 2193 c-14 -13 -7 -94 9 -111 15 -14 15 -16 -3 -23 -13 -5 -22
-20 -26 -46 -10 -59 -8 -203 4 -248 6 -22 15 -59 20 -82 6 -24 15 -43 20 -43
5 0 9 -11 9 -24 0 -14 7 -31 15 -40 8 -8 15 -19 15 -25 0 -15 91 -104 98 -96
4 3 2 9 -4 13 -6 4 -14 16 -18 27 -6 17 -4 16 16 -5 l23 -25 5 54 c8 74 -6
196 -26 226 -15 23 -15 25 1 25 11 0 15 6 12 18 -8 26 -20 95 -21 113 -1 9 -6
27 -13 40 -12 23 -74 159 -104 227 -14 32 -20 37 -32 25z m23 -153 c0 -5 -5
-10 -11 -10 -5 0 -7 5 -4 10 3 6 8 10 11 10 2 0 4 -4 4 -10z m110 -230 c6 -11
7 -20 2 -20 -6 0 -12 9 -15 20 -3 11 -3 20 -1 20 2 0 8 -9 14 -20z"/>
<path d="M2720 2139 c0 -5 5 -7 10 -4 6 3 10 8 10 11 0 2 -4 4 -10 4 -5 0 -10
-5 -10 -11z"/>
<path d="M2760 1739 c0 -5 5 -7 10 -4 6 3 10 8 10 11 0 2 -4 4 -10 4 -5 0 -10
-5 -10 -11z"/>
<path d="M2150 1280 c-8 -5 -11 -13 -6 -17 5 -4 11 -2 13 5 3 6 9 10 13 7 5
-3 7 -12 4 -19 -6 -14 32 -33 43 -22 4 3 12 1 20 -5 8 -8 13 -8 13 -1 0 21
-12 42 -21 36 -6 -3 -21 1 -34 10 -28 19 -26 18 -45 6z"/>
</g>
</svg>
